{"title":"America.Imagine.the.World.Without.Her.2014.DOCU.BRRiP.XViD.ReLeN","uid":11223412,"size":1273317395,"categoryP":"video","categoryS":"movies","magnet":"?xt=urn:btih:be8be3560be061c9582d777bdc637f161fa70d42&amp;dn=America.Imagine.the.World.Without.Her.2014.DOCU.BRRiP.XViD.ReLeN&amp;tr=udp%3A%2F%2Ftracker.openbittorrent.com%3A80&amp;tr=udp%3A%2F%2Fopen.demonii.com%3A1337&amp;tr=udp%3A%2F%2Ftracker.coppersurfer.tk%3A6969&amp;tr=udp%3A%2F%2Fexodus.desync.com%3A6969","seeders":1,"leechers":0,"uploader":"TvTeam","files":4,"time":1413412021,"description":" &lt;a href=&quot;http://www.torrenting.com&quot; rel=&quot;nofollow&quot; target=&quot;_NEW&quot;&gt;http://www.torrenting.com&lt;/a&gt;\n\nSign up is OPEN - for time being. Come and have fun.\n\n\n....P0STER\n[IMG]http://lookpic.com/O/i2/654/F94tF47r.jpeg[/IMG]\n\niMDB: http://www.imdb.com/title/tt2785390/\n\nGeneral\nComplete name                            : America.Imagine.the.World.Without.Her.2014.DOCU.BRRiP.XViD.ReLeNTLesS.avi\nFormat                                   : AVI\nFormat/Info                              : Audio Video Interleave\nFile size                                : 1.17 GiB\nDuration                                 : 1h 44mn\nOverall bit rate                         : 1 596 Kbps\n\nVideo\nID                                       : 0\nFormat                                   : MPEG-4 Visual\nFormat profile                           : Advanced Simple@L5\nFormat settings, BVOP                    : 2\nFormat settings, QPel                    : No\nFormat settings, GMC                     : No warppoints\nFormat settings, Matrix                  : Default (H.263)\nCodec ID                                 : XVID\nCodec ID/Hint                            : XviD\nDuration                                 : 1h 44mn\nBit rate                                 : 1 399 Kbps\nWidth                                    : 720 pixels\nHeight                                   : 400 pixels\nDisplay aspect ratio                     : 16:9\nFrame rate                               : 23.976 fps\nColor space                              : YUV\nChroma subsampling                       : 4:2:0\nBit depth                                : 8 bits\nScan type                                : Progressive\nCompression mode                         : Lossy\nBits/(Pixel*Frame)                       : 0.203\nStream size                              : 1.02 GiB (88%)\nWriting library                          : XviD 1.2.1 (UTC 2008-12-04)\n\nAudio\nID                                       : 1\nFormat                                   : MPEG Audio\nFormat version                           : Version 1\nFormat profile                           : Layer 3\nMode                                     : Joint stereo\nCodec ID                                 : 55\nCodec ID/Hint                            : MP3\nDuration                                 : 1h 44mn\nBit rate mode                            : Constant\nBit rate                                 : 192 Kbps\nChannel(s)                               : 2 channels\nSampling rate                            : 48.0 KHz\nCompression mode                         : Lossy\nStream size                              : 144 MiB (12%)\nAlignment                                : Aligned on interleaves\nInterleave, duration                     : 167 ms (4.00 video frames)\nInterleave, preload duration             : 216 ms\nTitle                                    : America.Imagine.the.World.Without.Her.2014.DOCU.ReLeNTLesS.2.0.audio.English\nWriting library                          : LAME3.99r\nEncoding settings                        : -m j -V 4 -q 2 -lowpass 18.6 -b 192\nSubtitles                                : Nope\nSource                                   : GECKOS Thanks\n\nPL0T\nA story that questions the shaming of the US through revisionist history, lies and omissions by educational institutions, political organizations, Alinsky, Barack Obama, Hillary Clinton and other progressives to destroy America.\n\nCAST\nDirectors:  Dinesh D'Souza, John Sullivan\nWriters:  Dinesh D'Souza, John Sullivan,\nStars:  Dinesh D'Souza, Barack Obama, Josh Bonzie\n\nSCREENS\n[IMG]http://lookpic.com/O/i2/1071/6IEkrjLL.png[/IMG]\n[IMG]http://lookpic.com/O/i2/1513/zQInp91H.png[/IMG]\n[IMG]http://lookpic.com/O/i2/459/pRare9Hl.png[/IMG]\n[IMG]http://lookpic.com/O/i2/1029/bx8FgKQO.png[/IMG]\n[IMG]http://lookpic.com/O/i2/1739/5v7RbPfn.png[/IMG]\n[IMG]http://lookpic.com/O/i2/231/cfO5a2S.png[/IMG]\n\nTRAiLER\n[video=http://www.imdb.com/video/imdb/vi3770789145/]\n\nGREETZ\n\nM0RPH, M00SE, MiLLENiUM, Anonymous, TuX, \n\nACAB, KingStoner, FooKas, 4PlayHD, \n\nGodFather, Cld.... \n\nKeep up the good work guyz","torrent":{"xt":"urn:btih:be8be3560be061c9582d777bdc637f161fa70d42","amp;dn":"America.Imagine.the.World.Without.Her.2014.DOCU.BRRiP.XViD.ReLeN","amp;tr":["udp%3A%2F%2Ftracker.openbittorrent.com%3A80","udp%3A%2F%2Fopen.demonii.com%3A1337","udp%3A%2F%2Ftracker.coppersurfer.tk%3A6969","udp%3A%2F%2Fexodus.desync.com%3A6969"],"infoHash":"be8be3560be061c9582d777bdc637f161fa70d42","infoHashBuffer":{"type":"Buffer","data":[190,139,227,86,11,224,97,201,88,45,119,123,220,99,127,22,31,167,13,66]},"announce":[],"urlList":[]}}